<svg xmlns="http://www.w3.org/2000/svg" xmlns:xlink="http://www.w3.org/1999/xlink" width="621" zoomAndPan="magnify" viewBox="0 0 465.75 255.749984" height="341" preserveAspectRatio="xMidYMid meet" version="1.0"><defs><g/><clipPath id="dadfd433df"><path d="M 0.101562 0 L 465.398438 0 L 465.398438 255.5 L 0.101562 255.5 Z M 0.101562 0 " clip-rule="nonzero"/></clipPath></defs><g clip-path="url(#dadfd433df)"><path fill="#ffffff" d="M 0.101562 0 L 465.398438 0 L 465.398438 255.5 L 0.101562 255.5 Z M 0.101562 0 " fill-opacity="1" fill-rule="nonzero"/><path fill="#000000" d="M 0.101562 0 L 465.398438 0 L 465.398438 255.5 L 0.101562 255.5 Z M 0.101562 0 " fill-opacity="1" fill-rule="nonzero"/></g><g fill="#e6e8da" fill-opacity="1"><g transform="translate(113.724843, 183.33421)"><g><path d="M 2.234375 0 L 14.640625 -128.265625 L 58.09375 -128.265625 L 70.328125 0 L 46 0 L 44.203125 -20.75 L 28.671875 -20.75 L 27.171875 0 Z M 30.609375 -41.21875 L 42.265625 -41.21875 L 36.578125 -106.46875 L 35.390625 -106.46875 Z M 30.609375 -41.21875 "/></g></g></g><g fill="#e6e8da" fill-opacity="1"><g transform="translate(186.146042, 183.33421)"><g><path d="M 5.671875 0 L 5.671875 -128.265625 L 31.359375 -128.265625 L 31.359375 -21.796875 L 57.796875 -21.796875 L 57.796875 0 Z M 5.671875 0 "/></g></g></g><g fill="#e6e8da" fill-opacity="1"><g transform="translate(245.426903, 183.33421)"><g><path d="M 4.484375 0 L 4.484375 -128.265625 L 29.265625 -128.265625 L 29.265625 0 Z M 4.484375 0 "/></g></g></g><g fill="#e6e8da" fill-opacity="1"><g transform="translate(279.323006, 183.33421)"><g><path d="M 2.234375 0 L 14.640625 -128.265625 L 58.09375 -128.265625 L 70.328125 0 L 46 0 L 44.203125 -20.75 L 28.671875 -20.75 L 27.171875 0 Z M 30.609375 -41.21875 L 42.265625 -41.21875 L 36.578125 -106.46875 L 35.390625 -106.46875 Z M 30.609375 -41.21875 "/></g></g></g><g fill="#ff3d00" fill-opacity="1"><g transform="translate(34.296935, 170.951754)"><g><path d="M 63.71875 -38.421875 C 63.453125 -40.15625 62.75 -41.234375 61.609375 -41.609375 C 60.359375 -42.109375 58.796875 -41.5 56.953125 -39.828125 C 56.515625 -39.390625 56.46875 -38.75 56.84375 -38.3125 C 57.21875 -37.875 57.875 -37.875 58.3125 -38.25 C 60.09375 -39.828125 60.796875 -39.71875 60.96875 -39.671875 C 61.28125 -39.5625 61.5625 -38.953125 61.71875 -38.046875 C 63.1875 -29.3125 52.671875 2.390625 39.9375 12.515625 C 38.6875 13.546875 36.90625 14.625 35.703125 14.03125 C 32.5625 12.46875 32.734375 1.140625 32.84375 -6.390625 C 32.953125 -14.953125 32.890625 -18.75 30.828125 -19.296875 C 29.53125 -19.671875 28.234375 -18.484375 26.28125 -15.0625 C 18.96875 -2 13.0625 7.796875 8.78125 14.140625 C 4.28125 20.8125 2.5 22.265625 1.890625 22.546875 C 1.515625 21.1875 1.78125 13.21875 19.078125 -31.859375 C 23.25 -42.703125 25.734375 -47.25 26.875 -48.65625 C 26.9375 -48.125 26.9375 -47.25 26.875 -45.734375 C 26.828125 -45.1875 27.25 -44.703125 27.796875 -44.65625 C 28.390625 -44.59375 28.875 -45.03125 28.9375 -45.625 C 29.15625 -48.65625 28.984375 -50.78125 27.46875 -51.09375 C 26.4375 -51.375 24.5 -51.796875 17.125 -32.5625 C 13.21875 -22.375 7.75 -7.796875 4.0625 3.796875 C -1.625 21.625 -0.59375 23.84375 0.921875 24.546875 C 1.1875 24.65625 1.40625 24.765625 1.6875 24.765625 C 3.140625 24.765625 5.25 22.921875 9.75 16.421875 C 14.140625 10.078125 20.328125 -0.15625 28.125 -14.03125 C 29.265625 -16.09375 29.96875 -16.859375 30.296875 -17.125 C 30.890625 -15.765625 30.78125 -10.40625 30.71875 -6.390625 C 30.5625 5.046875 30.78125 13.921875 34.78125 15.875 C 36.515625 16.75 38.6875 16.140625 41.234375 14.140625 C 54.734375 3.40625 65.34375 -29.09375 63.71875 -38.421875 Z M 63.71875 -38.421875 "/></g></g></g><g fill="#ff3d00" fill-opacity="1"><g transform="translate(97.093276, 170.951754)"><g><path d="M 18.3125 -12.078125 C 17.828125 -12.40625 17.171875 -12.296875 16.859375 -11.8125 C 12.78125 -6.125 9.484375 -2.546875 6.234375 -0.21875 C 4.609375 0.921875 3.03125 1.140625 2 0.375 C 1.359375 -0.109375 -0.65625 -2.28125 1.6875 -9.859375 C 6.9375 -14.203125 9.8125 -18.3125 9.046875 -20.484375 C 8.78125 -21.140625 8.125 -21.5625 7.421875 -21.5625 C 5.25 -21.515625 1.953125 -17.78125 -0.21875 -10.78125 C -2.875 -2.171875 -0.703125 0.96875 0.8125 2.0625 C 1.578125 2.65625 2.4375 2.921875 3.40625 2.921875 C 4.65625 2.921875 6.0625 2.4375 7.421875 1.46875 C 10.890625 -1.03125 14.3125 -4.71875 18.53125 -10.625 C 18.859375 -11.109375 18.75 -11.765625 18.3125 -12.078125 Z M 6.984375 -19.296875 C 6.78125 -18.421875 5.859375 -16.6875 3.3125 -14.09375 C 4.71875 -17.234375 6.234375 -18.75 6.984375 -19.296875 Z M 6.984375 -19.296875 "/></g></g></g><g fill="#ff3d00" fill-opacity="1"><g transform="translate(112.860089, 170.951754)"><g><path d="M 15.9375 -50.78125 C 15.546875 -51.265625 15.015625 -51.484375 14.46875 -51.421875 C 11.375 -50.875 8.078125 -39.34375 7.15625 -35.8125 C 4.4375 -25.46875 1.03125 -10.78125 -1.734375 2.390625 C -3.03125 8.609375 -4.0625 13.875 -4.71875 17.671875 C -5.796875 24.0625 -5.640625 24.875 -4.609375 25.140625 C -4.5 25.203125 -4.390625 25.203125 -4.28125 25.203125 C -3.3125 25.203125 -2.8125 23.890625 -2.328125 22.484375 C -2.171875 21.953125 -2.4375 21.34375 -2.984375 21.1875 C -3.03125 21.140625 -3.09375 21.140625 -3.140625 21.140625 C -2 13.328125 2.65625 -9.375 7.421875 -28.390625 C 7.421875 -28.453125 7.484375 -28.5 7.53125 -28.5625 C 14.578125 -39.71875 17.34375 -48.609375 15.9375 -50.78125 Z M 9.265625 -35.703125 C 11.328125 -43.34375 13.171875 -47.03125 14.140625 -48.546875 C 13.921875 -46.546875 12.734375 -42.21875 9.265625 -35.703125 Z M 9.265625 -35.703125 "/></g></g></g><g fill="#ff3d00" fill-opacity="1"><g transform="translate(121.095676, 170.951754)"><g><path d="M 17.875 -12.296875 C 17.390625 -12.578125 16.75 -12.46875 16.46875 -11.96875 C 12.78125 -6.390625 6.671875 2.921875 2.65625 2.0625 C 2 1.890625 1.46875 1.46875 1.078125 0.765625 C 0 -1.1875 0.15625 -5.09375 1.40625 -8.5 C 2.765625 -12.140625 4.390625 -13.0625 4.71875 -13 C 4.765625 -12.953125 5.09375 -12.25 4.65625 -10.5625 C 4.5 -9.96875 4.828125 -9.421875 5.359375 -9.265625 C 5.953125 -9.15625 6.5 -9.484375 6.671875 -10.03125 C 7.6875 -13.921875 5.90625 -14.796875 5.359375 -15.015625 C 3.359375 -15.609375 0.921875 -13.21875 -0.546875 -9.21875 C -1.78125 -5.859375 -2.328125 -1.078125 -0.703125 1.78125 C -0.046875 3.03125 0.96875 3.796875 2.21875 4.0625 C 2.546875 4.171875 2.875 4.171875 3.203125 4.171875 C 7.90625 4.171875 13 -2.921875 18.203125 -10.84375 C 18.53125 -11.328125 18.375 -11.96875 17.875 -12.296875 Z M 17.875 -12.296875 "/></g></g></g><g fill="#ff3d00" fill-opacity="1"><g transform="translate(137.133392, 170.951754)"><g><path d="M 19.609375 -11.765625 C 19.125 -12.140625 18.484375 -12.03125 18.15625 -11.59375 C 15.875 -8.671875 12.140625 -6.234375 9.265625 -6.78125 C 9.3125 -7.15625 9.375 -7.53125 9.375 -7.90625 C 9.75 -14.03125 7.859375 -15.28125 6.71875 -15.5 C 5.421875 -15.765625 4.0625 -14.796875 3.40625 -13.171875 C 3.140625 -13.28125 2.8125 -13.28125 2.546875 -13.0625 C 0.375 -11.703125 -1.40625 -8.234375 -0.4375 -4.5 C 0.21875 -2.28125 1.734375 -0.859375 3.734375 -0.859375 C 5.640625 -0.859375 7.640625 -2.28125 8.671875 -4.765625 C 12.46875 -3.953125 17.015625 -6.78125 19.78125 -10.296875 C 20.15625 -10.78125 20.046875 -11.4375 19.609375 -11.765625 Z M 3.796875 -2.921875 C 3.734375 -2.921875 3.734375 -2.921875 3.734375 -2.921875 C 2.390625 -2.984375 1.78125 -4.28125 1.625 -5.046875 C 1.078125 -6.875 1.515625 -9.421875 3.03125 -10.84375 C 3.140625 -9 4.171875 -6.984375 6.78125 -5.578125 C 6.015625 -3.84375 4.71875 -2.921875 3.796875 -2.921875 Z M 7.3125 -8.015625 C 7.265625 -7.90625 7.265625 -7.796875 7.265625 -7.6875 C 5.203125 -9.046875 4.875 -10.78125 5.25 -12.140625 C 5.53125 -13 6.0625 -13.4375 6.34375 -13.4375 C 6.609375 -13.390625 7.53125 -12.359375 7.3125 -8.015625 Z M 7.3125 -8.015625 "/></g></g></g><g fill="#ff3d00" fill-opacity="1"><g transform="translate(154.471466, 170.951754)"><g><path d="M 30.5625 -12.078125 C 30.125 -12.46875 29.421875 -12.40625 29.046875 -11.96875 C 24.703125 -6.875 21.78125 -5.578125 20.484375 -6.0625 C 19.34375 -6.5 18.6875 -8.671875 18.75 -12.078125 C 18.75 -12.6875 18.796875 -14.140625 17.609375 -14.40625 C 16.25 -14.734375 15.28125 -13.171875 12.40625 -7.15625 C 11.921875 -6.125 11.484375 -5.203125 11.21875 -4.65625 C 10.890625 -4.0625 10.671875 -3.734375 10.515625 -3.578125 C 10.234375 -4.125 9.859375 -5.53125 9.921875 -7.640625 C 9.921875 -8.71875 9.921875 -9.640625 9.96875 -10.40625 C 10.03125 -12.78125 10.078125 -13.65625 9.109375 -14.03125 C 8.234375 -14.3125 7.640625 -13.5 7.484375 -13.21875 C 5.09375 -9.96875 2.984375 -6.671875 0.765625 -2.65625 C 1.625 -6.390625 3.203125 -11.765625 5.203125 -16.25 C 5.421875 -16.796875 5.203125 -17.453125 4.65625 -17.671875 C 4.125 -17.875 3.515625 -17.671875 3.25 -17.125 C 1.734375 -13.59375 0.21875 -9.109375 -0.921875 -4.65625 C -2.703125 2.5 -2 2.8125 -1.359375 3.140625 C -1.1875 3.203125 -1.03125 3.25 -0.859375 3.25 C -0.328125 3.25 0.15625 2.875 0.59375 2.0625 C 3.203125 -2.921875 5.359375 -6.609375 7.859375 -10.234375 C 7.859375 -9.484375 7.796875 -8.609375 7.796875 -7.640625 C 7.796875 -5.953125 8.015625 -1.953125 10.03125 -1.40625 C 11.65625 -1.03125 12.6875 -3.03125 13.0625 -3.6875 C 13.390625 -4.28125 13.8125 -5.203125 14.3125 -6.234375 C 14.90625 -7.484375 15.875 -9.53125 16.6875 -10.953125 C 16.796875 -7.15625 17.828125 -4.828125 19.78125 -4.125 C 22.4375 -3.09375 26.0625 -5.3125 30.671875 -10.625 C 31.046875 -11.046875 31 -11.703125 30.5625 -12.078125 Z M 30.5625 -12.078125 "/></g></g></g><g fill="#ff3d00" fill-opacity="1"><g transform="translate(182.70002, 170.951754)"><g><path d="M 18.3125 -12.078125 C 17.828125 -12.40625 17.171875 -12.296875 16.859375 -11.8125 C 12.78125 -6.125 9.484375 -2.546875 6.234375 -0.21875 C 4.609375 0.921875 3.03125 1.140625 2 0.375 C 1.359375 -0.109375 -0.65625 -2.28125 1.6875 -9.859375 C 6.9375 -14.203125 9.8125 -18.3125 9.046875 -20.484375 C 8.78125 -21.140625 8.125 -21.5625 7.421875 -21.5625 C 5.25 -21.515625 1.953125 -17.78125 -0.21875 -10.78125 C -2.875 -2.171875 -0.703125 0.96875 0.8125 2.0625 C 1.578125 2.65625 2.4375 2.921875 3.40625 2.921875 C 4.65625 2.921875 6.0625 2.4375 7.421875 1.46875 C 10.890625 -1.03125 14.3125 -4.71875 18.53125 -10.625 C 18.859375 -11.109375 18.75 -11.765625 18.3125 -12.078125 Z M 6.984375 -19.296875 C 6.78125 -18.421875 5.859375 -16.6875 3.3125 -14.09375 C 4.71875 -17.234375 6.234375 -18.75 6.984375 -19.296875 Z M 6.984375 -19.296875 "/></g></g></g><g fill="#ff3d00" fill-opacity="1"><g transform="translate(198.466834, 170.951754)"><g/></g></g><g fill="#ff3d00" fill-opacity="1"><g transform="translate(215.100548, 170.951754)"><g><path d="M 45.734375 -31.96875 C 45.03125 -32.953125 41.890625 -33.546875 8.234375 -32.78125 C 9.3125 -37.171875 10.296875 -41.125 11.15625 -44.328125 C 11.328125 -44.921875 11 -45.46875 10.453125 -45.625 C 9.921875 -45.78125 9.3125 -45.46875 9.15625 -44.921875 C 8.234375 -41.5 7.203125 -37.390625 6.0625 -32.734375 C 3.09375 -32.671875 -0.15625 -32.625 -3.6875 -32.515625 C -8.5 -32.40625 -12.296875 -32.296875 -13.765625 -32.296875 C -14.359375 -32.296875 -14.84375 -31.8125 -14.84375 -31.265625 C -14.84375 -30.671875 -14.359375 -30.1875 -13.765625 -30.1875 C -12.25 -30.234375 -8.453125 -30.296875 -3.625 -30.453125 C -1.078125 -30.5 2.0625 -30.5625 5.578125 -30.671875 C 3.25 -20.8125 0.59375 -9 -1.78125 2.546875 C -3.515625 11 -4.9375 18.3125 -5.859375 23.6875 C -6.34375 26.5 -6.671875 28.71875 -6.828125 30.234375 C -7.046875 32.296875 -7.15625 33.484375 -6.125 33.875 C -5.953125 33.875 -5.859375 33.921875 -5.6875 33.921875 C -4.765625 33.921875 -4.28125 32.625 -3.84375 31.421875 C -3.625 30.890625 -3.90625 30.296875 -4.4375 30.078125 C -4.546875 30.078125 -4.609375 30.015625 -4.71875 30.015625 C -4.171875 25.796875 -2.546875 16.3125 0.59375 1.359375 C 2.921875 -9.96875 5.46875 -21.296875 7.75 -30.71875 C 22.65625 -31.046875 42 -31.328125 44.21875 -30.5625 C 44.59375 -30.234375 45.078125 -30.234375 45.515625 -30.5 C 45.953125 -30.828125 46.0625 -31.484375 45.734375 -31.96875 Z M 45.734375 -31.96875 "/></g></g></g><g fill="#ff3d00" fill-opacity="1"><g transform="translate(222.306681, 170.951754)"><g><path d="M 19.609375 -11.765625 C 19.125 -12.140625 18.484375 -12.03125 18.15625 -11.59375 C 15.875 -8.671875 12.140625 -6.234375 9.265625 -6.78125 C 9.3125 -7.15625 9.375 -7.53125 9.375 -7.90625 C 9.75 -14.03125 7.859375 -15.28125 6.71875 -15.5 C 5.421875 -15.765625 4.0625 -14.796875 3.40625 -13.171875 C 3.140625 -13.28125 2.8125 -13.28125 2.546875 -13.0625 C 0.375 -11.703125 -1.40625 -8.234375 -0.4375 -4.5 C 0.21875 -2.28125 1.734375 -0.859375 3.734375 -0.859375 C 5.640625 -0.859375 7.640625 -2.28125 8.671875 -4.765625 C 12.46875 -3.953125 17.015625 -6.78125 19.78125 -10.296875 C 20.15625 -10.78125 20.046875 -11.4375 19.609375 -11.765625 Z M 3.796875 -2.921875 C 3.734375 -2.921875 3.734375 -2.921875 3.734375 -2.921875 C 2.390625 -2.984375 1.78125 -4.28125 1.625 -5.046875 C 1.078125 -6.875 1.515625 -9.421875 3.03125 -10.84375 C 3.140625 -9 4.171875 -6.984375 6.78125 -5.578125 C 6.015625 -3.84375 4.71875 -2.921875 3.796875 -2.921875 Z M 7.3125 -8.015625 C 7.265625 -7.90625 7.265625 -7.796875 7.265625 -7.6875 C 5.203125 -9.046875 4.875 -10.78125 5.25 -12.140625 C 5.53125 -13 6.0625 -13.4375 6.34375 -13.4375 C 6.609375 -13.390625 7.53125 -12.359375 7.3125 -8.015625 Z M 7.3125 -8.015625 "/></g></g></g><g fill="#ff3d00" fill-opacity="1"><g transform="translate(239.644765, 170.951754)"><g/></g></g><g fill="#ff3d00" fill-opacity="1"><g transform="translate(256.278468, 170.951754)"><g><path d="M 30.5625 -12.078125 C 30.125 -12.46875 29.421875 -12.40625 29.046875 -11.96875 C 24.703125 -6.875 21.78125 -5.578125 20.484375 -6.0625 C 19.34375 -6.5 18.6875 -8.671875 18.75 -12.078125 C 18.75 -12.6875 18.796875 -14.140625 17.609375 -14.40625 C 16.25 -14.734375 15.28125 -13.171875 12.40625 -7.15625 C 11.921875 -6.125 11.484375 -5.203125 11.21875 -4.65625 C 10.890625 -4.0625 10.671875 -3.734375 10.515625 -3.578125 C 10.234375 -4.125 9.859375 -5.53125 9.921875 -7.640625 C 9.921875 -8.71875 9.921875 -9.640625 9.96875 -10.40625 C 10.03125 -12.78125 10.078125 -13.65625 9.109375 -14.03125 C 8.234375 -14.3125 7.640625 -13.5 7.484375 -13.21875 C 5.09375 -9.96875 2.984375 -6.671875 0.765625 -2.65625 C 1.625 -6.390625 3.203125 -11.765625 5.203125 -16.25 C 5.421875 -16.796875 5.203125 -17.453125 4.65625 -17.671875 C 4.125 -17.875 3.515625 -17.671875 3.25 -17.125 C 1.734375 -13.59375 0.21875 -9.109375 -0.921875 -4.65625 C -2.703125 2.5 -2 2.8125 -1.359375 3.140625 C -1.1875 3.203125 -1.03125 3.25 -0.859375 3.25 C -0.328125 3.25 0.15625 2.875 0.59375 2.0625 C 3.203125 -2.921875 5.359375 -6.609375 7.859375 -10.234375 C 7.859375 -9.484375 7.796875 -8.609375 7.796875 -7.640625 C 7.796875 -5.953125 8.015625 -1.953125 10.03125 -1.40625 C 11.65625 -1.03125 12.6875 -3.03125 13.0625 -3.6875 C 13.390625 -4.28125 13.8125 -5.203125 14.3125 -6.234375 C 14.90625 -7.484375 15.875 -9.53125 16.6875 -10.953125 C 16.796875 -7.15625 17.828125 -4.828125 19.78125 -4.125 C 22.4375 -3.09375 26.0625 -5.3125 30.671875 -10.625 C 31.046875 -11.046875 31 -11.703125 30.5625 -12.078125 Z M 30.5625 -12.078125 "/></g></g></g><g fill="#ff3d00" fill-opacity="1"><g transform="translate(284.507023, 170.951754)"><g><path d="M 26.5 -11.921875 C 26.171875 -12.40625 25.515625 -12.515625 25.03125 -12.1875 C 20.375 -9.15625 15.609375 -5.796875 11.046875 -1.578125 C 11.703125 -5.578125 12.359375 -9.859375 12.953125 -14.359375 C 13.0625 -14.84375 12.734375 -15.328125 12.25 -15.5 C 11.8125 -15.65625 11.265625 -15.4375 11.046875 -15.015625 C 9.96875 -13.171875 7.59375 -9.375 5.46875 -6.828125 C 4.71875 -5.90625 3.953125 -5.421875 3.578125 -5.6875 C 2.65625 -6.234375 2 -9.96875 4.125 -15.125 C 4.328125 -15.65625 4.0625 -16.25 3.578125 -16.46875 C 3.03125 -16.6875 2.4375 -16.421875 2.21875 -15.875 C 0 -10.453125 0.109375 -5.3125 2.546875 -3.90625 C 3.140625 -3.46875 4.875 -2.875 7.046875 -5.46875 C 8.1875 -6.828125 9.265625 -8.34375 10.234375 -9.8125 C 9.703125 -6.0625 9.15625 -2.5 8.5625 0.921875 C 4.015625 5.578125 -0.265625 11.21875 -3.953125 18.375 C -10.140625 30.234375 -11.265625 43.40625 -8.1875 47.203125 C -7.59375 47.953125 -6.828125 48.328125 -6.015625 48.328125 C -5.75 48.328125 -5.53125 48.28125 -5.25 48.234375 C -1.734375 47.203125 1.40625 39.390625 3.46875 33 C 6.015625 25.03125 8.34375 14.625 10.515625 1.890625 C 15.546875 -3.140625 20.921875 -7.046875 26.171875 -10.453125 C 26.65625 -10.78125 26.828125 -11.4375 26.5 -11.921875 Z M 1.46875 32.34375 C -2.4375 44.703125 -5.25 46.0625 -5.796875 46.21875 C -6.015625 46.28125 -6.234375 46.28125 -6.5625 45.890625 C -8.5 43.515625 -8.671875 31.96875 -2.109375 19.296875 C 0.921875 13.5 4.28125 8.71875 7.90625 4.65625 C 5.953125 15.875 3.796875 25.140625 1.46875 32.34375 Z M 1.46875 32.34375 "/></g></g></g><g fill="#ff3d00" fill-opacity="1"><g transform="translate(308.509423, 170.951754)"><g/></g></g><g fill="#ff3d00" fill-opacity="1"><g transform="translate(325.143126, 170.951754)"><g><path d="M 49.140625 -52.671875 C 45.078125 -55.4375 38.53125 -55.8125 30.78125 -53.703125 C 29.859375 -53.484375 28.984375 -53.21875 28.0625 -52.890625 C 28.125 -53.109375 28.171875 -53.328125 28.234375 -53.53125 C 28.34375 -54.078125 27.953125 -54.625 27.421875 -54.78125 C 26.875 -54.890625 26.28125 -54.515625 26.171875 -53.96875 C 26.0625 -53.375 25.90625 -52.71875 25.734375 -52.015625 C 20.328125 -49.90625 15.125 -46.875 11.046875 -43.296875 C 3.359375 -36.578125 0.8125 -29.09375 4.0625 -22.65625 C 4.28125 -22.15625 4.9375 -21.953125 5.421875 -22.21875 C 5.953125 -22.4375 6.171875 -23.078125 5.90625 -23.625 C 4.28125 -26.828125 2.984375 -33.484375 12.40625 -41.71875 C 15.9375 -44.8125 20.421875 -47.515625 25.140625 -49.53125 C 23.890625 -44.109375 22.109375 -36.734375 20.109375 -28.5625 C 16.953125 -15.765625 13.4375 -1.296875 10.890625 10.03125 C 9.484375 16.25 8.5 20.859375 7.96875 24.171875 C 7.046875 29.6875 7.265625 30.78125 8.34375 31.15625 C 8.453125 31.21875 8.609375 31.21875 8.78125 31.21875 C 9.75 31.21875 10.515625 29.90625 11.765625 27.09375 C 12.03125 26.609375 11.765625 25.953125 11.265625 25.734375 C 10.734375 25.515625 10.078125 25.734375 9.859375 26.28125 C 9.8125 26.4375 9.703125 26.609375 9.640625 26.71875 C 10.515625 20.421875 13.984375 5.53125 17.5625 -9.265625 C 18.859375 -6.5 21.296875 -4.828125 24.5 -4.609375 C 24.703125 -4.609375 24.984375 -4.609375 25.203125 -4.609375 C 29.3125 -4.609375 34.1875 -6.984375 38.640625 -11.21875 C 44 -16.3125 48.546875 -23.78125 51.796875 -32.890625 C 56.078125 -44.8125 52.71875 -50.234375 49.140625 -52.671875 Z M 49.859375 -33.59375 C 45.890625 -22.546875 40.796875 -16.140625 37.171875 -12.6875 C 32.890625 -8.609375 28.34375 -6.453125 24.65625 -6.71875 C 21.5625 -6.875 19.5 -8.78125 18.859375 -12.03125 C 18.75 -12.296875 18.59375 -12.515625 18.375 -12.6875 C 19.671875 -18.046875 20.96875 -23.296875 22.109375 -28.0625 C 24.28125 -37.015625 26.234375 -44.921875 27.53125 -50.5 C 28.78125 -50.9375 30.078125 -51.375 31.328125 -51.6875 C 38.421875 -53.59375 44.484375 -53.328125 48.015625 -50.9375 C 53.328125 -47.3125 51.96875 -39.5 49.859375 -33.59375 Z M 49.859375 -33.59375 "/></g></g></g><g fill="#ff3d00" fill-opacity="1"><g transform="translate(372.931203, 170.951754)"><g><path d="M 22.65625 -12.03125 C 22.15625 -12.25 21.515625 -12.03125 21.296875 -11.546875 C 17.171875 -3.140625 14.09375 -0.484375 12.625 -0.765625 C 12.03125 -0.859375 10.078125 -2 9.59375 -11.484375 C 9.59375 -11.921875 9.265625 -12.296875 8.890625 -12.40625 C 8.453125 -12.515625 7.96875 -12.40625 7.75 -12.03125 C 7.421875 -11.65625 7.09375 -11.21875 6.78125 -10.734375 C 5.421875 -8.890625 3.625 -6.390625 1.46875 -4.0625 C 1.140625 -3.6875 0.859375 -3.46875 0.703125 -3.359375 C 0.328125 -5.25 2.328125 -12.515625 5.53125 -14.796875 C 6.453125 -15.4375 7.6875 -15.9375 9.375 -13.984375 C 9.75 -13.546875 10.40625 -13.5 10.84375 -13.875 C 11.265625 -14.203125 11.328125 -14.90625 11 -15.328125 C 8.9375 -17.71875 6.984375 -17.671875 5.6875 -17.234375 C 1.515625 -15.765625 -1.296875 -7.75 -1.40625 -4.0625 C -1.46875 -2.546875 -1.03125 -1.578125 -0.15625 -1.25 C 1.1875 -0.703125 2.546875 -2.171875 2.984375 -2.65625 C 4.828125 -4.65625 6.5 -6.828125 7.6875 -8.5 C 8.296875 -2.328125 9.75 0.765625 12.1875 1.296875 C 12.40625 1.296875 12.625 1.359375 12.84375 1.359375 C 16.53125 1.359375 20.484375 -5.09375 23.140625 -10.625 C 23.40625 -11.15625 23.1875 -11.765625 22.65625 -12.03125 Z M 22.65625 -12.03125 "/></g></g></g><g fill="#ff3d00" fill-opacity="1"><g transform="translate(393.086702, 170.951754)"><g><path d="M 24.8125 -11.96875 C 24.5 -12.46875 23.84375 -12.578125 23.40625 -12.296875 C 19.609375 -9.859375 14.734375 -6.671875 9.703125 -2.546875 C 10.234375 -6.28125 10.78125 -10.234375 11.328125 -14.46875 C 11.375 -15.015625 11.046875 -15.4375 10.625 -15.609375 C 10.140625 -15.765625 9.59375 -15.546875 9.375 -15.125 C 8.453125 -13.59375 5.90625 -9.703125 3.796875 -6.875 C 2.921875 -5.796875 2.4375 -5.359375 2.171875 -5.203125 C 1.625 -6.9375 3.3125 -14.6875 6.71875 -17.71875 C 8.078125 -18.96875 9.3125 -18.96875 10.671875 -17.78125 C 11.109375 -17.390625 11.765625 -17.390625 12.140625 -17.828125 C 12.515625 -18.265625 12.46875 -18.90625 12.078125 -19.296875 C 9.921875 -21.234375 7.96875 -20.921875 6.71875 -20.265625 C 2.328125 -18.09375 -0.328125 -9.109375 0.046875 -5.46875 C 0.15625 -3.84375 0.921875 -3.25 1.515625 -3.09375 C 2.984375 -2.703125 4.390625 -4.234375 5.421875 -5.640625 C 6.5 -7.046875 7.640625 -8.671875 8.671875 -10.140625 C 8.234375 -6.71875 7.75 -3.515625 7.265625 -0.484375 C 1.46875 4.546875 -4.328125 10.890625 -8.71875 18.90625 C -12.03125 24.875 -13.109375 29.90625 -13.4375 33.046875 C -13.875 37.171875 -13.28125 40.59375 -11.765625 42.421875 C -10.953125 43.453125 -9.921875 44 -8.78125 44 C -8.453125 44 -8.078125 43.953125 -7.6875 43.84375 C -2.5 42.375 4.328125 30.015625 9.15625 0.59375 C 14.796875 -4.234375 20.328125 -7.796875 24.5 -10.515625 C 24.984375 -10.84375 25.140625 -11.484375 24.8125 -11.96875 Z M -8.234375 41.828125 C -9 42.046875 -9.59375 41.828125 -10.140625 41.125 C -12.1875 38.578125 -12.515625 30.078125 -6.9375 19.9375 C -3.140625 13.0625 1.734375 7.421875 6.671875 2.8125 C 1.734375 31.21875 -4.765625 40.859375 -8.234375 41.828125 Z M -8.234375 41.828125 "/></g></g></g><g fill="#ff3d00" fill-opacity="1"><g transform="translate(415.409469, 170.951754)"><g><path d="M 18.3125 -12.078125 C 17.828125 -12.40625 17.171875 -12.296875 16.859375 -11.8125 C 12.78125 -6.125 9.484375 -2.546875 6.234375 -0.21875 C 4.609375 0.921875 3.03125 1.140625 2 0.375 C 1.359375 -0.109375 -0.65625 -2.28125 1.6875 -9.859375 C 6.9375 -14.203125 9.8125 -18.3125 9.046875 -20.484375 C 8.78125 -21.140625 8.125 -21.5625 7.421875 -21.5625 C 5.25 -21.515625 1.953125 -17.78125 -0.21875 -10.78125 C -2.875 -2.171875 -0.703125 0.96875 0.8125 2.0625 C 1.578125 2.65625 2.4375 2.921875 3.40625 2.921875 C 4.65625 2.921875 6.0625 2.4375 7.421875 1.46875 C 10.890625 -1.03125 14.3125 -4.71875 18.53125 -10.625 C 18.859375 -11.109375 18.75 -11.765625 18.3125 -12.078125 Z M 6.984375 -19.296875 C 6.78125 -18.421875 5.859375 -16.6875 3.3125 -14.09375 C 4.71875 -17.234375 6.234375 -18.75 6.984375 -19.296875 Z M 6.984375 -19.296875 "/></g></g></g></svg>